<?xml version="1.0" encoding="utf-8"?>
<!-- Generator: Adobe Illustrator 23.0.1, SVG Export Plug-In . SVG Version: 6.00 Build 0)  -->
<svg version="1.1" id="Logo" xmlns="http://www.w3.org/2000/svg" xmlns:xlink="http://www.w3.org/1999/xlink" x="0px" y="0px"
	 viewBox="0 0 200.38 226.43" style="enable-background:new 0 0 200.38 226.43;" xml:space="preserve">
<style type="text/css">
	.st0{fill:#073C5C;}
	.st1{fill:#4D9DB8;}
	.st2{fill:#76BCD2;}
	.st3{fill:#5C9842;}
</style>
<g>
	<g>
		<path class="st0" d="M133.91,182.19c-0.19,0-0.34,0.15-0.34,0.34c0,0.19,0.15,0.34,0.34,0.34c0.19,0,0.34-0.15,0.34-0.34
			C134.25,182.34,134.1,182.19,133.91,182.19z"/>
		<ellipse class="st0" cx="130.45" cy="183.98" rx="1.71" ry="1.24"/>
		<path class="st0" d="M67.48,143.69l-0.24-1.06l-0.77,0.76c-1.02,1.02-3.89,3.57-8.59,5.37l-0.84,0.32l0.63,0.65
			c2.63,2.72,5.68,4.81,6.88,5.59l0.67,0.44l0.22-0.77C65.7,154.07,68,146.01,67.48,143.69z"/>
		<path class="st0" d="M75.45,163.51l1.22-0.87l-1.48-0.21c-2.66-0.37-7.13-1.86-7.17-1.88l-0.6-0.2l-0.16,0.62
			c-0.05,0.18-1.17,4.54,0.35,9.14l0.31,0.94l0.69-0.72C69.75,169.13,74.94,163.87,75.45,163.51z"/>
		<path class="st0" d="M78.34,163.71l-0.31-0.06l-9.14,9.14l0.41,0.42c0.3,0.3,2.92,2.99,4.2,3.45l0.36,0.13l0.27-0.27
			c0.43-0.43,9.82-8.57,10.75-9.36l0.49-0.41l-0.44-0.46C83.36,164.68,78.85,163.81,78.34,163.71z"/>
		<path class="st0" d="M153.09,160.7c-0.12,0.07-0.17,0.22-0.1,0.34c0.07,0.12,0.22,0.17,0.34,0.1c0.12-0.07,0.17-0.22,0.1-0.34
			C153.37,160.68,153.21,160.64,153.09,160.7z"/>
		<path class="st0" d="M151.03,162.28c-0.61,0.33-0.91,0.96-0.67,1.41c0.24,0.45,0.94,0.54,1.55,0.2c0.61-0.33,0.91-0.96,0.67-1.41
			C152.34,162.04,151.65,161.95,151.03,162.28z"/>
		<path class="st0" d="M165.75,166.59c0,0,0-36.94,0-43.24c0-6.3-4.78-5.59-4.78-5.59s-31.35,0-34.23,0
			c-2.88,0-10.32-0.51-21.92,6.69c-11.59,7.19-22.43,5.67-22.43,5.67h-7.82c-4.07-14.35-4-30.2,4.92-40.92
			c0.24-0.27,0.47-0.54,0.7-0.78c0.53-0.58,1.06-1.17,1.67-1.71c0.86-0.83,1.41-1.29,1.41-1.29s0.28-0.24,0.8-0.66
			c0.02-0.01,0.03-0.03,0.05-0.04c-0.02,0-0.03,0-0.05,0c0.14-0.11,0.29-0.2,0.43-0.31c0.17-0.14,0.34-0.24,0.51-0.37
			c0.38-0.29,0.83-0.61,1.33-0.97c0.72-0.52,1.43-1.02,2.16-1.46c0.69-0.45,1.45-0.92,2.26-1.41c-0.07,0.15,0.62-0.48,0.55-0.32
			c14.93-8.38,25.66-5.08,32.29-4.62c-3.62-2.39-14.53-2.82-14.53-2.82l-0.65-0.11c11.69-3.65,27.02-5.65,45.11-1.59
			c-36.54-11.81-53.06-3.94-53.06-3.94c5.5-3.6,9.38-12.24,11.68-18.91c-0.14,0.26-4.8,8.79-20.32,20.09
			c0.01-0.02,0.01-0.03,0.02-0.05c-3.51,2.84-7.46,5.66-12,8.32c3.12-3.14,6.75-8.85,9.83-14.98c-0.13,0.08-6.47,4.07-15.26,15.87
			c-4.51,6.36-9.29,13.34-13.01,19.35c0,0,0,0,0,0c-0.37,0.43-0.73,0.86-1.1,1.29c4.86-12.66,10.26-21.02,19.64-30.34
			c-7.81,4.63-18.53,15.17-24.63,30.4c0,0-0.01,0.01-0.01,0.01c-0.11,0.28-0.2,0.54-0.31,0.81c-0.17,0.44-0.34,0.88-0.5,1.32
			c-2.86,7.67-3.84,13.51-3.86,19.38c-0.09,1.92-0.07,3.89,0,5.89c-0.12-0.42-0.24-0.84-0.36-1.28c-2.65-10.6-1.96-19.96-0.6-26.68
			c0.96-2.99,1.97-7.64,3.42-10.89c0,0-25.23,34.37-4.95,77.27c0.02,0.05,0.04,0.09,0.06,0.14c1.02,2.43,2.03,4.61,3.03,6.57
			c0.09,0.19,0.19,0.37,0.28,0.55c0.28,0.53,0.55,1.04,0.83,1.54c0.06,0.1,0.11,0.21,0.16,0.3c0,0,0,0,0,0
			c7.2,12.87,14.15,15.11,23.31,21.21c12.69,8.46,30.3,8.25,37.74,8.25c7.45,0,22.98-3.09,37.79-13.33
			C166.18,178.65,165.75,166.59,165.75,166.59z M82.29,188.62c-0.25-0.04-0.59-0.17-0.66-0.26c0.28,0.11,0.4,0.14,0.44,0.15
			c0.06,0.02,0.46,0.11,1.04,0.17C82.6,188.66,82.29,188.63,82.29,188.62z M95.5,181.68c-0.21-0.09-0.3-0.27-0.34-0.57
			c-0.7-4.06-5.06-10.09-7.64-12.94l-0.45-0.5l-0.44,0.51c-1.82,2.11-9.85,9.39-9.93,9.47l-1.05,0.95l12.1,0.76
			c0.71,0.44,4.55,3,3.99,6.51c-0.36,2.29-3.94,2.79-6.44,2.86c2.56-0.24,4.12-1.55,4.41-3.75c0.16-1.19-0.06-2.13-0.65-2.8
			c-0.63-0.72-1.63-1.08-2.97-1.08c-1.05,0-1.98,0.23-2.1,0.27c0,0-0.01,0-0.03,0c-0.11,0-0.52,0.02-1.12,0.02
			c-2.97,0-10.36-0.47-14.8-4.77c-5.81-5.64-4.13-16-3.92-17.16l0.07-0.4l-0.35-0.21c-0.23-0.14-0.52-0.3-0.88-0.49
			c-2.48-1.32-7.63-4.07-11.04-12.67c-1.89-4.77-0.29-13.8,1.84-20.67c0.24-0.77,0.48-1.94,0.65-2.79l0.13-0.63
			c0.6,0.31,1.06,0.63,1.14,0.8c0.11,0.32,0.1,1.7,0.03,2.8c-0.1,4.21-1.04,9.55-1.04,9.61l-0.23,1.3l3-1.82
			c0.02-0.01,4.34-2.9,5.17-3.46c0.3,0.46,0.95,1.49,1.33,2.13c-1.98,1.85-8.01,5.72-9.03,6.31l-0.26,0.15l-0.03,0.3
			c-0.11,1.09,0.38,3.09,0.74,4.55c0.1,0.4,0.18,0.75,0.24,1.01l0.14,0.68l0.65-0.24c7.35-2.75,9.64-6.48,9.74-6.64l0.11-0.19
			l-0.03-0.22c-0.23-1.42-0.44-3.09-0.46-3.89l0,0c0.15,0.1,4.02,2.16,4.74,10.05c0.73,8-2.05,11.78-2.08,11.81l-0.56,0.73l0.9,0.21
			c0.11,0.03,10.96,2.56,16.59,5.21c5.1,2.4,8.56,9.49,9.8,13.29C95.84,178.2,95.64,180.63,95.5,181.68z M130.7,188.39
			c-3.21,1.22-3.73,1.11-5.07,2.62c-1.34,1.52-5.36,1.34-5.36,1.34s-2.4-0.29,3.14-3.03c-2.56,0.47-9.67-1.05-13.45-2.33
			c-1.69-0.52-2.68,0.52-2.68,0.52s-4.02,1.57-6.18,1.34c-2.16-0.23-1.34-1.46-0.76-1.69c0.58-0.23,4.02-2.62,4.02-3.44
			c0-0.82-1.98-5.13-1.98-5.13s-0.17-2.21,1.46-1.17c1.63,1.05,5.54,4.6,5.54,4.6s5.65-1.69,9.32-1.92
			c-0.76-0.87-2.33-2.68-3.38-3.32c1.69-0.41,5.07,0.42,8.68,2.58c1.86-0.17,10.73,0.34,13.35,3.66
			C138.16,184.19,133.91,187.16,130.7,188.39z M153.19,165.86c-1.65,1.93-2.03,2.03-2.36,3.49c-0.33,1.46-3.78,3.17-3.78,3.17
			s-1.16,0.65,1.47-3.08c-1.49,1.2-6.37,2.33-9.28,2.84c-1.28,0.26-1.55,1.29-1.55,1.29s-2.05,2.44-3.54,3.05
			c-1.48,0.61-1.38-0.47-1.09-0.83c0.3-0.36,1.68-3.12,1.4-3.65c-0.29-0.53-3.1-2.63-3.1-2.63s-0.89-1.38,0.53-1.27
			c1.43,0.1,5.22,1.03,5.22,1.03s2.07-2.4,4.37-3.85c-0.95,0.02-1.65,0.04-2.56-0.01c0.21-0.19,0.49-0.48,0.81-0.8
			c1.27-0.64,3.05-1.51,3.82-1.7c0,0,1.32-0.87,2.42-1.38c0.05-0.02,0.1-0.05,0.16-0.07c0.07-0.03,0.14-0.06,0.21-0.09
			c2.35-0.98,6.98-2.33,9.28-1.34C156.55,160.5,154.84,163.93,153.19,165.86z"/>
	</g>
	<path class="st1" d="M74.91,130.97c0,0,5.46-0.13,12.06,1.65c6.6,1.78,19.68,0.76,25.39,0c5.71-0.76,24.63-2.78,31.23,4.82
		c8.76,10.11-10.03,20.82-12.31,22.6c-2.28,1.78-14.47,8.25-35.67,0C81.12,154.4,74.91,130.97,74.91,130.97z"/>
	<path class="st2" d="M117.33,138.1c2.48-0.87,0.46-1.65,0.43-1.65c-0.77-0.06-1.75-0.06-2.62,0.16c-1.71,0.44-11.69,1.97-26.53-1.4
		c-3.23-0.73-1.21,0.36-0.51,0.98c3.76,3.3,14.76,3.76,14.93,3.76C109.55,139.96,114.85,138.97,117.33,138.1z"/>
	<path class="st3" d="M159.4,97.27c-0.71,7.17,4.8,10.45,10,12.94c0.55-16.37-11.97-18.4-11.97-18.4c1.42,2.03,7.33,6.39,8.66,12.16
		C163.77,99.45,161.52,98.36,159.4,97.27z"/>
	<path class="st3" d="M100.54,88.32c-10.31-7.8-18.45,1.43-18.45,1.43l10.74-0.96c0,0-5.9,1.91-12.26,4.14
		C89.21,98.99,97.88,91.82,100.54,88.32z"/>
	<path class="st3" d="M105.02,81.53c2.31,7.71,8.61,6.9,11.69,7.18c-1.92-13.1-13.02-9.6-13.02-9.6l-0.09,0.26
		c4.99,0.58,8.53,3.3,9.15,5.46C110.42,82.51,108.31,81.88,105.02,81.53z"/>
	<path class="st3" d="M127.23,50.94c-2.86,2.39-7.94,8.35-7.6,8.39c11.3,1.17,16.27-10.14,16.94-15.24
		c-11-0.8-18.92,8.12-19.87,15.24C119.6,55.72,122.98,52.48,127.23,50.94z"/>
	<path class="st3" d="M90.29,60.84c3.49-6.93,6.28-14.39,6.82-19.29c0,8.94-0.3,15.09-1.59,18.59c7.36-5.21,10.8-16.97,5.55-35.94
		C96.68,25.46,82.03,46,88.9,57.95L90.29,60.84z"/>
	<path class="st3" d="M118.45,40.97c-2.5,1.88-3.27,4.38-4.18,6.5c2.43,0.85,7.45-0.85,8.88-6.32c0.68-2.58-0.29-3.76,1.01-6.79
		c-13.59,1.6-12.29,13.11-12.29,13.11C112.69,45.14,116.24,41.9,118.45,40.97z"/>
	<path class="st3" d="M74.52,49.46c-3.79,12.62,3.44,16.04,3.44,16.04c0.47-1.61-0.12-6.57-0.46-8.37c1.81,2.77,2.74,6.18,3.03,8.83
		C85.82,59.26,77.96,49.01,74.52,49.46z"/>
	<path class="st3" d="M60.57,77.65c1.44-3.45,0.53-16.51,0.31-19.27c1.9,2.76,4.73,11.73,4.54,17.63
		c7.78-10.51-1.87-29.62-7.54-31.96C46.5,72.97,60.57,77.65,60.57,77.65z"/>
	<path class="st3" d="M52.09,86.49c0,0-3.17-4.35-2.79-6.64c0.29,1.86,3.41,3.72,4.56,6.42c2.21-6.64-3.55-11.68-7.35-11.47
		C44.6,86.86,52.09,86.49,52.09,86.49z"/>
	<path class="st3" d="M43.99,98.5c6.6-8.34-3.19-21.09-7.47-20.53c-4.72,15.71,4.28,19.97,4.28,19.97c0.58-2-0.15-8.18-0.58-10.43
		C42.47,90.96,43.62,95.21,43.99,98.5z"/>
	<path class="st3" d="M30.38,98.13c-5.26,14.7,4.31,16.38,4.31,16.38s-2.99-6.42-1.97-9.2c-0.07,2.43,3.44,5.68,4.27,9.44
		C41.34,106.98,35.23,98.94,30.38,98.13z"/>
	<path class="st3" d="M26.5,118.17c0.95,11.93,8.03,11.9,8.03,11.9c-0.14-1.51-2.22-5.38-3.09-6.74c2.39,1.57,4.26,4.03,5.35,6.1
		C39.01,121.79,29.2,116.44,26.5,118.17z"/>
	<path class="st3" d="M141.32,87.74c-4.76-3.97-16.02-10.5-15.98-9.93c1.45,18.83,21.42,23.59,29.95,23.17
		c-1.97-18.22-18.91-28.53-30.83-27.97C131.24,76.68,137.54,81.25,141.32,87.74z"/>
	<path class="st3" d="M173.82,92.93c0.66-5.56-4.57-13.58-11.7-18.16c-6.87-3.58-15.78-0.64-15.78-0.64s0,0.01,0,0.02
		c5.19,1.27,10.54,3.09,15.9,5.68c-4.87-1.6-11.96-2.19-11.96-2.19S155.89,93.17,173.82,92.93z"/>
	<path class="st3" d="M148.88,50.36c-2.2,1.36-3.98,2.79-5.53,4.18c-6.25,5.87-5.41,8.39-5.41,8.39
		c4.62-4.43,12.35-10.82,18.51-10.82c-3.67,2.07-13.47,9.87-14.41,11.15c4.83,1.11,8.72,1.75,13.18,0.48
		c4.47-1.27,12.82-13.65,17.87-13.91C178.14,49.56,157.66,44.94,148.88,50.36z"/>
</g>
</svg>
