<?xml version="1.0" encoding="UTF-8"?> <svg xmlns="http://www.w3.org/2000/svg" id="Layer_1" data-name="Layer 1" viewBox="0 0 280 200"> <defs> <style>.cls-1{fill:#231f20;}.cls-2{fill:none;stroke:#231f20;}.cls-3{fill:#0e91cc;}.cls-4{fill:#f7ce0f;}</style> </defs> <title>primary-logo</title> <path class="cls-1" d="M91.31,125.79l.36-.21c.51.73.64.78,1.51.28l4-2.28c.88-.5.9-.64.53-1.45l.37-.2L99.84,125l-.36.21c-.52-.73-.64-.78-1.53-.28l-4,2.28c-.87.5-.89.64-.52,1.45l-.37.2Z"></path> <path class="cls-1" d="M106.76,134.48c-.45-.47-.74-.55-1.19-.24a16.13,16.13,0,0,0-1.57,1.22l-3.58,3.12-.38-.43,1.23-7.67,0,0-2,1.76a13.57,13.57,0,0,0-1.4,1.35c-.36.39-.4.69.16,1.38l-.32.28L95.74,133l.31-.28c.48.48.8.56,1.22.26a14.76,14.76,0,0,0,1.57-1.21l1.89-1.64c.58-.51.74-.68.79-1a1.2,1.2,0,0,0-.32-1l.31-.27,1.46,1.66-1,6.89,0,0,1.58-1.38a19.11,19.11,0,0,0,1.42-1.36c.35-.38.34-.7-.2-1.39l.32-.28,1.91,2.2Z"></path> <path class="cls-1" d="M111.9,140.48a2,2,0,0,0-.35-2.32,1.14,1.14,0,0,0-1.64.25c-.4.53-.29,1.09.24,2.14.63,1.25.92,2.3.2,3.24-.82,1.09-2.38,1.24-3.78.19a4.37,4.37,0,0,1-.86-.86,5.46,5.46,0,0,1-.42-.65,14,14,0,0,1,.94-1.83l.42.15c-.27.75-.52,2.25.4,2.94a1.15,1.15,0,0,0,1.71-.28c.43-.57.27-1.24-.16-2.16-.6-1.24-.89-2.26-.2-3.18a2.44,2.44,0,0,1,3.59-.22,4.77,4.77,0,0,1,1.13,1.26c-.22.38-.47.85-.84,1.5Z"></path> <path class="cls-1" d="M121.44,145.83a2.61,2.61,0,0,0,.06-1.34c-.09-.28-.34-.48-1-.78l-.5-.24-2.45,5.1c-.44.91-.36,1,.55,1.56l-.18.38-3.52-1.69.18-.38c.95.36,1.09.35,1.53-.57l2.45-5.1-.37-.17c-.88-.43-1.13-.4-1.38-.31a3,3,0,0,0-1,.87l-.39-.18c.42-.77.86-1.52,1.15-2.06l.26.12c0,.33.18.42.48.57l4.34,2.08a.77.77,0,0,0,.75,0l.26.12c-.21.46-.61,1.44-.89,2.15Z"></path> <path class="cls-1" d="M123.92,152.7l.11-.4c.88.15,1,.09,1.26-.88l1.19-4.42c.27-1,.19-1.09-.65-1.4l.11-.41,3.47.94-.11.4c-.88-.15-1-.1-1.27.89l-1.19,4.42c-.26,1-.18,1.08.65,1.39l-.1.4Z"></path> <path class="cls-1" d="M139.17,149.42a2.63,2.63,0,0,0-.43-1.27c-.19-.23-.49-.32-1.18-.38l-.55,0-.45,5.64c-.08,1,0,1.09,1.08,1.26l0,.41-3.89-.3,0-.42c1,0,1.14-.07,1.22-1.08l.44-5.64-.4,0c-1-.08-1.21,0-1.4.21A2.94,2.94,0,0,0,133,149l-.43,0c.11-.86.25-1.73.32-2.33l.29,0c.17.29.32.32.66.35l4.79.38a.77.77,0,0,0,.71-.24l.29,0c0,.5-.05,1.56-.05,2.32Z"></path> <path class="cls-1" d="M151.2,146.58c-.64.13-.9.42-.9.85a9.56,9.56,0,0,0,.13,1.66l.19,1.29a4.19,4.19,0,0,1-.42,3.08,3.05,3.05,0,0,1-2.06,1.18,3.39,3.39,0,0,1-2.19-.31,3.27,3.27,0,0,1-1.38-2.64l-.41-2.78c-.16-1.11-.29-1.18-1.18-1.13l-.06-.41,3.56-.52.06.41c-.85.21-1,.31-.8,1.42l.38,2.57c.26,1.77,1,2.71,2.33,2.52s1.86-1.36,1.58-3.33l-.19-1.27a9.25,9.25,0,0,0-.36-1.63c-.12-.4-.44-.6-1.25-.53l-.06-.41,3-.43Z"></path> <path class="cls-1" d="M161,144.76a2.59,2.59,0,0,0-.94-.95c-.27-.13-.59-.08-1.23.17l-.52.2,2.08,5.27c.37.94.51,1,1.52.66l.15.39-3.63,1.43-.15-.39c.9-.45,1-.56.62-1.51l-2.08-5.26-.38.15c-.91.36-1.06.56-1.16.81a3,3,0,0,0,0,1.3l-.4.16c-.28-.83-.53-1.67-.73-2.24l.27-.11c.27.19.43.15.74,0l4.47-1.76a.81.81,0,0,0,.54-.54l.27-.1c.19.46.63,1.42,1,2.11Z"></path> <path class="cls-1" d="M167.69,147.64l-.23-.35c.71-.55.76-.67.22-1.53l-2.43-3.88c-.54-.86-.67-.88-1.47-.48l-.22-.35,3-1.91.22.36c-.7.54-.75.67-.21,1.53l2.43,3.88c.54.86.67.87,1.47.47l.22.36Z"></path> <path class="cls-1" d="M178,134.38a4.08,4.08,0,1,1-5.62-.18A3.87,3.87,0,0,1,178,134.38Zm-4.7,4.24c1.41,1.49,3.26,2.13,4.37,1.07.83-.78.73-2.22-.78-3.82s-3.32-2.1-4.32-1.16S171.91,137.12,173.32,138.62Z"></path> <path class="cls-1" d="M182.33,122.43c-.32.56-.33.85.1,1.2a15.43,15.43,0,0,0,1.61,1.18l4,2.59-.31.48-7.7.92,0,0,2.25,1.47a16.62,16.62,0,0,0,1.68,1c.47.24.77.19,1.29-.53l.35.23-1.6,2.45-.35-.23c.32-.58.31-.92-.09-1.24a14.18,14.18,0,0,0-1.59-1.17l-2.09-1.37c-.65-.42-.86-.52-1.21-.48s-.59.2-.9.59l-.36-.22,1.21-1.86,6.89-1,0,0-1.77-1.15a19.56,19.56,0,0,0-1.69-1c-.47-.23-.77-.13-1.29.57l-.35-.22L182,122.2Z"></path> <path class="cls-1" d="M93.64,74.06a1.94,1.94,0,0,0-2.22.74,1.14,1.14,0,0,0,.52,1.58c.58.3,1.12.09,2.07-.6,1.12-.84,2.11-1.3,3.16-.76,1.21.63,1.63,2.15.83,3.7a4.47,4.47,0,0,1-.71,1,6,6,0,0,1-.56.53,16,16,0,0,1-2-.63l.07-.43c.79.14,2.31.12,2.84-.9a1.15,1.15,0,0,0-.57-1.63c-.63-.33-1.27-.06-2.1.51-1.12.81-2.08,1.27-3.1.75a2.44,2.44,0,0,1-.83-3.51,4.88,4.88,0,0,1,1.05-1.33c.41.16.92.32,1.62.58Z"></path> <path class="cls-1" d="M104.94,68.28l-.32-.27c.51-.74.49-.85-.35-1.56l-3.53-3,0,.05,3,6-.22.25-6.23-2.1,0,0,2.28,2.14A13.6,13.6,0,0,0,101,71.16c.44.31.68.2,1.25-.36l.31.27-1.86,2.19-.32-.27c.39-.55.38-.86.1-1.19a17.42,17.42,0,0,0-1.56-1.66l-1.67-1.67c-1-1-1.15-1-1.9-.28L95,67.91,96.64,66l5.49,1.64-2.47-5.19,1.56-1.83.32.27c-.55.8-.51.89.27,1.52l3.47,2.82c.86.7,1,.7,1.64.06l.32.27Z"></path> <path class="cls-1" d="M110,63.45l-.26-.33c.66-.61.69-.74.08-1.54l-2.77-3.64c-.61-.81-.75-.81-1.51-.35l-.25-.33,2.85-2.17.26.33c-.65.6-.69.74-.07,1.55l2.77,3.64c.61.8.74.8,1.5.33l.25.34Z"></path> <path class="cls-1" d="M119.12,51.19a2.48,2.48,0,0,0-1-.86c-.28-.1-.59,0-1.21.28l-.49.25,2.53,5.06c.45.9.59.91,1.57.52l.19.37-3.49,1.75-.18-.38c.86-.52.93-.64.48-1.55L115,51.57l-.37.19c-.87.43-1,.65-1.08.9a3,3,0,0,0,.09,1.3l-.38.2c-.35-.81-.68-1.62-.93-2.17l.26-.13a.65.65,0,0,0,.74,0l4.3-2.15a.78.78,0,0,0,.49-.58l.25-.12c.24.44.76,1.35,1.16,2Z"></path> <path class="cls-1" d="M131.84,45.83c-.89.29-.94.38-.71,1.37l1,4.48c.22,1,.33,1,1.24.91l.09.41-3.55.81-.1-.4c.92-.3,1-.4.75-1.38l-.49-2.16-3.18.73.5,2.16c.22,1,.33,1,1.21.93l.1.4-3.48.8-.09-.41c.83-.27.92-.37.69-1.36l-1-4.47c-.22-1-.34-1-1.26-.91l-.09-.41,3.49-.8.09.41c-.82.27-.89.36-.66,1.35l.39,1.71,3.18-.73-.4-1.71c-.22-1-.33-1-1.21-.92l-.1-.41,3.5-.81Z"></path> <path class="cls-1" d="M141.48,46.9c-.26-.75-.71-1.63-1.69-1.62a1.14,1.14,0,0,0-1.15,1.19c0,.66.44,1,1.49,1.56,1.27.6,2.13,1.26,2.14,2.45,0,1.36-1.15,2.43-2.89,2.45a4.6,4.6,0,0,1-1.21-.16,6.77,6.77,0,0,1-.73-.26,13.25,13.25,0,0,1-.36-2l.41-.14c.25.77,1,2.1,2.11,2.09a1.15,1.15,0,0,0,1.19-1.26c0-.71-.53-1.15-1.43-1.62-1.24-.61-2.1-1.25-2.1-2.4A2.43,2.43,0,0,1,140,44.79a4.62,4.62,0,0,1,1.67.31c0,.44.13,1,.24,1.71Z"></path> <path class="cls-1" d="M154.64,50.73a4.08,4.08,0,1,1-3-4.72A3.88,3.88,0,0,1,154.64,50.73Zm-6.16-1.44c-.42,2,.11,3.89,1.61,4.2,1.11.24,2.24-.66,2.69-2.81.49-2.33-.16-3.94-1.5-4.22C150.09,46.21,148.91,47.27,148.48,49.29Z"></path> <path class="cls-1" d="M167.68,52.72c-.6-.25-.89-.22-1.18.25a14.62,14.62,0,0,0-1,1.74L163.45,59l-.51-.25-1.88-7.54,0,0-1.17,2.43a15.8,15.8,0,0,0-.77,1.78c-.17.5-.09.79.69,1.21l-.18.38L157,55.69l.18-.38c.63.25,1,.2,1.23-.24a15.35,15.35,0,0,0,1-1.73l1.09-2.24c.34-.7.42-.92.34-1.27s-.28-.56-.71-.82l.18-.37,2,1,1.81,6.73,0,0,.92-1.9c.46-.94.65-1.48.78-1.8.17-.49,0-.78-.73-1.21l.18-.38,2.62,1.28Z"></path> <path class="cls-1" d="M167.19,61.31l.26-.34c.75.47.89.47,1.5-.33L171.73,57c.62-.81.58-.94-.07-1.54l.26-.34,2.85,2.18-.26.33c-.75-.47-.88-.47-1.5.34l-2.79,3.65c-.6.8-.57.93.08,1.53l-.25.34Z"></path> <path class="cls-1" d="M175.46,68.77l.32-.28c.55.45.7.4,1-.1.18-.33.44-.8.68-1.26l-1.54-1.71-1.24.54c-.54.26-.64.39-.14,1.11l-.31.28-1.79-2,.31-.27c.6.52.8.54,1.81.16l6.21-2.3.52.35c-1,2-2.09,3.92-3.09,5.88-.51,1-.53,1.22-.09,1.85l-.31.28Zm3.61-4.62,0,0c-.87.34-1.71.69-2.55,1l1.25,1.39Z"></path> <path class="cls-1" d="M190.06,77.73c-.33-.55-.59-.69-1.1-.49a17.76,17.76,0,0,0-1.8.86L183,80.36l-.27-.5,2.86-7.22v0l-2.37,1.28a18.64,18.64,0,0,0-1.66,1c-.43.31-.54.59-.14,1.39l-.37.2-1.4-2.58.37-.2c.36.57.66.72,1.13.52a14.74,14.74,0,0,0,1.79-.84l2.2-1.19c.69-.37.88-.5,1-.84a1.2,1.2,0,0,0-.1-1.07l.37-.2L187.45,72,185,78.56l0,0,1.85-1a17.79,17.79,0,0,0,1.68-1c.43-.3.49-.61.11-1.4L189,75l1.39,2.56Z"></path> <circle class="cls-2" cx="140" cy="100" r="60.28"></circle> <circle class="cls-3" cx="140" cy="100" r="42.05"></circle> <path class="cls-4" d="M165.36,108.52a8.78,8.78,0,0,0-7.55-4.72v0L176,100l-18.14-3.78h0a14.65,14.65,0,0,1,9-3.37c4,0,7.44-4.94,5.24-8.7,0,0-.66,5.9-8.11,3.94a8.82,8.82,0,0,0-8.68,2h0l10.16-15.51L149.92,84.74h0a14.68,14.68,0,0,1,4-8.75c2.79-2.87,1.77-8.77-2.44-9.86,0,0,3.71,4.63-3,8.51a8.82,8.82,0,0,0-4.72,7.56h0L140,64.05l-3.78,18.14h0a14.62,14.62,0,0,1-3.37-9c-.06-4-4.95-7.45-8.7-5.25,0,0,5.9.66,3.93,8.11a8.79,8.79,0,0,0,2,8.68h0L114.58,74.58h0l8.28,12.63,1.88,2.87h0a14.74,14.74,0,0,1-8.75-4c-2.87-2.78-8.76-1.77-9.86,2.44,0,0,4.63-3.71,8.51,2.95a8.82,8.82,0,0,0,7.56,4.72h0L104.05,100l18.14,3.78h0a14.66,14.66,0,0,1-9,3.36c-4,.06-7.45,4.95-5.24,8.7,0,0,.65-5.9,8.1-3.93a8.83,8.83,0,0,0,8.69-2h0l-10.16,15.51,15.5-10.16a14.71,14.71,0,0,1-4,8.75c-2.78,2.87-1.77,8.76,2.44,9.86,0,0-3.7-4.63,2.95-8.51a8.82,8.82,0,0,0,4.73-7.56h0L140,136l3.78-18.14h0a14.65,14.65,0,0,1,3.37,9c.06,4,4.94,7.45,8.7,5.24,0,0-5.9-.65-3.94-8.1a8.8,8.8,0,0,0-2-8.68h0l15.5,10.15-5.36-8.18-4.79-7.32h0a14.7,14.7,0,0,1,8.75,4c2.86,2.78,8.76,1.77,9.85-2.44C173.87,111.47,169.24,115.17,165.36,108.52Z"></path> </svg> 